<svg xmlns="http://www.w3.org/2000/svg" viewBox="0 0 48 48" width="48" height="48">
  <path fill="#FF9900" d="M29.5 32c-4.5 0-8.5-1.2-11.8-3.2-.3-.2-.3-.5-.1-.7.5-.5 1.3-1.3 1.7-1.7.2-.2.5-.2.8 0 2.8 1.8 6.2 2.8 9.7 2.8 2.8 0 5.8-.8 5.8-3.5 0-1.8-1.3-2.8-4.2-3.5l-4.5-1c-4.5-1-6.5-3.3-6.5-6.5 0-4.2 3.5-7.2 9-7.2 3.8 0 7.8 1.2 10.3 2.8.3.2.3.5.2.8-.5.7-1.3 1.7-1.8 2.3-.2.2-.5.3-.8.2-2.3-1.3-5.3-2.2-7.8-2.2-2.7 0-4.8.8-4.8 3 0 1.7 1.5 2.5 4.2 3.2l4.2 1c4.7 1.2 6.8 3.3 6.8 6.7 0 4.7-3.8 7.7-9.5 7.7z"/>
  <path fill="#FF9900" d="M40.5 35.5c-.2 0-.3 0-.5-.2C37 32 36 30 36 26.5v-14c0-.3.2-.5.5-.5h3c.3 0 .5.2.5.5v13.7c0 2.3.7 3.7 2.7 6 .2.2.2.5 0 .7l-2 2.5c-.1.1-.2.1-.2.1z"/>
  <path fill="#FF9900" d="M8 40c10 7.5 24.5 11.5 37 11.5 0 0 .5 0 .5-.5s-.5-.5-1-.8C38 46 23.5 42 14.5 35.5c-.3-.2-.7-.2-1 0l-5 4c-.3.2-.3.5-.5.5z"/>
</svg>
