<svg xmlns="http://www.w3.org/2000/svg" viewBox="0 0 48 48" width="48" height="48">
  <rect width="48" height="48" fill="#000"/>
  <path fill="#00C805" d="M30 12c-2 0-3.5 1-4.5 2.5-.5-1-1.5-2-3-2.5-1-.3-2-.5-3-.5-3 0-5.5 2-6.5 5-1 3 0 6 2 8 1.5 1.5 3.5 2.5 5.5 3 3 .5 6 0 8.5-2 2-1.5 3.5-4 4-6.5.5-3-.5-6-2.5-8-.5-.5-1-.5-1.5-.5.5.5 1 1 1.5 2 1 1.5 1.5 3.5 1 5.5-.5 2-2 4-4 5-2.5 1.5-5.5 2-8 1-2-.5-4-1.5-5-3-1.5-1.5-2-4-1-6 .5-2 2-3.5 4-4 1 0 2 .5 2.5 1 .5.5 1 1 1 2 0 .5 0 1-.5 1.5-.5.5-1 .5-1.5.5s-1-.5-1-1c0-.5.5-1 1-1 0 0 0-.5-.5-.5s-1 .5-1 1c0 1 1 2 2 2s2-1 2-2c0-1-.5-2-1.5-3-1-1-2.5-1.5-4-1-2.5.5-4.5 2.5-5 5-.5 3 .5 6 2.5 8 2 2 5 3 7.5 3 3 0 6-1.5 7.5-4 1.5-2 2-5 1.5-7.5-.5-2-1.5-3.5-3-5z"/>
</svg>
